<?xml version="1.0" standalone="no"?>
<!DOCTYPE svg PUBLIC "-//W3C//DTD SVG 20010904//EN"
 "http://www.w3.org/TR/2001/REC-SVG-20010904/DTD/svg10.dtd">
<svg version="1.0" xmlns="http://www.w3.org/2000/svg"
 width="1280.000000pt" height="906.000000pt" viewBox="0 0 1280.000000 906.000000"
 preserveAspectRatio="xMidYMid meet">
<metadata>
Created by potrace 1.15, written by Peter Selinger 2001-2017
</metadata>
<g transform="translate(0.000000,906.000000) scale(0.100000,-0.100000)"
fill="#380e81" stroke="none">
<path d="M8055 9053 c-44 -2 -285 -17 -535 -33 -250 -16 -552 -34 -670 -40
-591 -28 -1043 -100 -2120 -340 -871 -194 -1189 -255 -1525 -295 -71 -9 -138
-18 -147 -21 -22 -7 -78 26 -78 45 0 8 -6 22 -13 30 -12 14 -6 40 40 181 49
147 53 169 44 200 -14 47 -59 89 -103 96 -42 7 -100 -17 -121 -49 -8 -12 -37
-92 -66 -177 -47 -144 -53 -157 -81 -167 -33 -13 -40 -45 -15 -72 12 -15 0
-59 -106 -386 -150 -461 -332 -1021 -499 -1535 -71 -217 -246 -757 -389 -1200
-144 -443 -265 -815 -271 -827 -5 -12 -19 -23 -32 -25 -18 -2 -24 -10 -26 -36
-2 -21 2 -34 11 -38 12 -4 8 -24 -20 -112 -36 -111 -280 -862 -603 -1857 -104
-319 -275 -845 -380 -1170 -105 -324 -227 -700 -271 -834 -43 -134 -79 -255
-79 -270 0 -37 33 -87 71 -107 46 -23 104 -13 141 24 30 29 47 79 346 1002 33
102 119 365 190 585 164 504 475 1462 638 1965 231 713 223 688 247 692 12 2
27 13 32 26 6 13 34 37 63 54 46 26 57 29 80 19 22 -9 37 -8 72 4 110 39 361
111 574 165 796 203 1709 326 2836 384 322 17 1124 40 1215 34 l59 -3 -165
-146 c-209 -186 -279 -274 -279 -354 0 -45 27 -73 106 -113 150 -75 336 -115
620 -134 292 -19 660 3 1474 87 976 100 1335 125 1795 125 291 0 482 -10 695
-37 208 -26 213 -24 224 65 3 26 13 106 22 177 138 1131 604 2104 1382 2883
83 84 176 185 206 225 287 383 172 620 -339 698 -153 24 -731 18 -989 -9 -412
-44 -742 -94 -1216 -183 -639 -121 -828 -151 -1082 -169 -207 -14 -331 -13
-325 3 3 6 23 58 46 115 67 168 91 276 122 542 6 52 13 116 16 141 5 43 2 50
-31 86 -43 49 -101 69 -236 83 -87 9 -363 10 -555 3z m-5033 -767 c2 -24 -16
-236 -33 -375 -111 -941 -398 -1879 -855 -2794 -91 -180 -229 -436 -309 -572
-26 -44 -51 -90 -54 -103 -7 -24 -114 -92 -126 -80 -3 3 80 270 185 594 106
324 277 852 382 1174 190 586 332 1023 577 1777 72 222 131 405 131 407 0 3
10 6 23 8 21 4 78 -22 79 -36z"/>
</g>
</svg>
