<?xml version="1.0" standalone="no"?>
<!DOCTYPE svg PUBLIC "-//W3C//DTD SVG 20010904//EN"
 "http://www.w3.org/TR/2001/REC-SVG-20010904/DTD/svg10.dtd">
<svg version="1.0" xmlns="http://www.w3.org/2000/svg"
 width="1222.000000pt" height="1280.000000pt" viewBox="0 0 1222.000000 1280.000000"
 preserveAspectRatio="xMidYMid meet">
<metadata>
Created by potrace 1.15, written by Peter Selinger 2001-2017
</metadata>
<g transform="translate(0.000000,1280.000000) scale(0.100000,-0.100000)"
fill="#380e81" stroke="none">
<path d="M7265 12776 c-82 -31 -99 -41 -129 -76 -33 -40 -43 -81 -51 -210 -19
-303 -95 -924 -151 -1235 -83 -459 -245 -908 -431 -1190 -130 -197 -236 -305
-543 -555 -445 -363 -550 -495 -736 -933 -333 -784 -420 -976 -571 -1262 -330
-622 -627 -1030 -906 -1246 -178 -138 -309 -182 -529 -178 -73 2 -132 -1 -138
-7 -6 -6 -10 -941 -10 -2599 0 -1425 0 -2600 0 -2613 0 -14 9 -26 23 -32 22
-10 348 -72 997 -190 184 -34 634 -117 1000 -186 719 -135 611 -120 1335 -178
346 -28 772 -48 1620 -76 971 -32 1738 17 2091 135 103 34 240 101 334 164
257 171 573 481 674 663 64 116 69 149 70 478 1 275 2 299 22 351 36 95 94
166 284 354 345 341 432 485 417 690 -7 92 -38 188 -147 460 -85 212 -110 303
-110 399 1 118 42 186 260 436 295 337 325 420 226 635 -18 39 -89 165 -158
280 -182 304 -208 364 -208 471 0 96 32 155 223 413 170 228 205 305 194 430
-22 259 -279 714 -563 997 -201 200 -386 268 -834 304 -547 45 -1581 62 -2399
40 -555 -14 -508 -22 -536 85 -31 121 -16 314 40 524 69 255 141 420 475 1101
264 537 294 614 370 935 58 244 65 312 65 640 0 325 -6 386 -57 595 -88 364
-193 568 -400 778 -152 154 -342 276 -535 345 -119 43 -308 80 -418 83 -84 3
-109 0 -160 -20z"/>
<path d="M455 6139 c-32 -5 -82 -16 -110 -25 -66 -22 -175 -95 -221 -147 -41
-47 -88 -136 -99 -184 -3 -18 -11 -35 -16 -38 -12 -8 -12 -5082 0 -5089 5 -3
14 -28 21 -55 14 -61 78 -158 136 -209 57 -51 165 -107 232 -121 36 -8 313
-11 880 -11 708 0 836 2 887 15 184 47 311 164 373 344 14 41 16 300 23 2441
4 1317 3 2458 -1 2535 -7 108 -14 155 -33 207 -61 170 -174 273 -352 325 -54
15 -134 17 -860 19 -440 1 -827 -2 -860 -7z"/>
</g>
</svg>
